<?xml version="1.0" encoding="UTF-8"?>
<svg version="1.1" xmlns="http://www.w3.org/2000/svg" width="46" height="45">
<path d="M0 0 C0.88494141 -0.03673828 1.76988281 -0.07347656 2.68164062 -0.11132812 C8.94609783 -0.15362379 8.94609783 -0.15362379 11.63183594 1.78637695 C14.04953413 4.53435465 15.51692995 7.27283875 16.0625 10.875 C16.35125 12.091875 16.64 13.30875 16.9375 14.5625 C17.9275 14.8925 18.9175 15.2225 19.9375 15.5625 C20.07280844 18.62648451 20.1717407 21.68447126 20.25 24.75 C20.29189453 25.61431641 20.33378906 26.47863281 20.37695312 27.36914062 C20.46512947 31.97194596 20.43760036 33.91228795 17.54296875 37.67578125 C14.9375 39.5625 14.9375 39.5625 12.9375 39.5625 C12.855 40.18125 12.7725 40.8 12.6875 41.4375 C11.9375 43.5625 11.9375 43.5625 10.15722656 44.67871094 C7.81536176 45.61112961 6.17976403 45.82031226 3.671875 45.828125 C2.86363281 45.83070312 2.05539063 45.83328125 1.22265625 45.8359375 C0.38605469 45.82820313 -0.45054688 45.82046875 -1.3125 45.8125 C-2.13363281 45.82023437 -2.95476563 45.82796875 -3.80078125 45.8359375 C-9.2080764 45.81879869 -13.94968479 45.39403878 -19.0625 43.5625 C-23.41833426 38.95474249 -25.42522486 33.092388 -25.625 26.8125 C-25.34896484 22.07950686 -24.20396436 18.7630647 -22.0625 14.5625 C-21.753125 13.53125 -21.44375 12.5 -21.125 11.4375 C-19.51969994 7.0937469 -17.4552936 4.45492762 -13.55078125 1.953125 C-8.94455691 0.11682504 -4.91462615 0.01078557 0 0 Z " fill="#519CD6" transform="translate(26.0625,-0.5625)"/>
<path d="M0 0 C4.29 0 8.58 0 13 0 C13.33 0.66 13.66 1.32 14 2 C15.64821244 3.03013277 17.31503702 4.03114628 19 5 C20 6 20 6 20.09765625 8.06640625 C20.08605469 8.89011719 20.07445312 9.71382812 20.0625 10.5625 C20.05347656 11.38878906 20.04445312 12.21507812 20.03515625 13.06640625 C20.02355469 13.70449219 20.01195312 14.34257812 20 15 C13.08616486 17.13120646 6.70118424 17.23698014 -0.5 17.125 C-1.60859375 17.11597656 -2.7171875 17.10695313 -3.859375 17.09765625 C-6.57314592 17.07426167 -9.28645545 17.04148175 -12 17 C-11.74253565 15.38431247 -11.46690442 13.77151256 -11.18359375 12.16015625 C-11.03204834 11.26176025 -10.88050293 10.36336426 -10.72436523 9.43774414 C-10 7 -10 7 -7.0625 4.4375 C-4 3 -4 3 -1 2 C-0.67 1.34 -0.34 0.68 0 0 Z " fill="#8FC9F6" transform="translate(18,0)"/>
<path d="M0 0 C2.1875 -0.375 2.1875 -0.375 5 0 C8.50165267 3.25735132 10.10892993 5.65201331 11.125 10.3125 C11.41375 11.529375 11.7025 12.74625 12 14 C12.99 14.33 13.98 14.66 15 15 C15.125 17.375 15.125 17.375 15 20 C13 22 13 22 9.59375 22.125 C7.53153051 22.07676095 5.4714784 21.99893377 3.41015625 21.921875 C1.60707605 21.87969769 -0.19763977 21.93385834 -2 22 C-2.66 22.66 -3.32 23.32 -4 24 C-6.27734375 24.30078125 -6.27734375 24.30078125 -8.9375 24.3125 C-10.25041016 24.33763672 -10.25041016 24.33763672 -11.58984375 24.36328125 C-14 24 -14 24 -15.81640625 22.60546875 C-17 21 -17 21 -17 19 C-19.64 19 -22.28 19 -25 19 C-25 18.67 -25 18.34 -25 18 C-19.8480534 17.18760369 -14.76955451 16.75308816 -9.5625 16.5 C-3.99484576 16.22791554 1.47427031 15.74756208 7 15 C6.98674793 11.89901539 6.82346839 8.99866792 6 6 C3.07956297 3.52351923 3.07956297 3.52351923 0 2 C0 1.34 0 0.68 0 0 Z " fill="#0F1A24" transform="translate(31,0)"/>
<path d="M0 0 C1.35432675 1.31200404 2.68733482 2.64631404 4 4 C6.69682948 4.65330172 9.21453329 4.81430222 12 5 C11.25 7.4375 11.25 7.4375 10 10 C8 10.875 8 10.875 6 11 C5.34 10.67 4.68 10.34 4 10 C3.731875 10.598125 3.46375 11.19625 3.1875 11.8125 C1.94353368 14.1040169 1.12366882 15.4830937 -1 17 C-4.15711388 17.39463924 -6.10774168 17.63732737 -8.75 15.75 C-12.14082574 11.00284397 -12.19245586 7.77367593 -12 2 C-8.29277293 -0.47148472 -4.31131074 -0.76346128 0 0 Z " fill="#80C2F6" transform="translate(14,20)"/>
<path d="M0 0 C0.33 0.99 0.66 1.98 1 3 C1.928125 3.103125 2.85625 3.20625 3.8125 3.3125 C7.03900374 4.00841257 8.19738575 4.29607863 10 7 C10 8.32 10 9.64 10 11 C2.39701733 13.48260659 -5.10311193 13.18508331 -13 13 C-11.30307957 6.23644512 -8.3784925 -1.4785575 0 0 Z " fill="#5AB5FA" transform="translate(28,4)"/>
<path d="M0 0 C-1.12795963 4.10899581 -2.33510818 8.07561214 -4 12 C-5.32 12 -6.64 12 -8 12 C-8 11.34 -8 10.68 -8 10 C-8.99 10 -9.98 10 -11 10 C-11 7.36 -11 4.72 -11 2 C-7.36576791 -0.32590854 -4.22911669 -0.16265833 0 0 Z " fill="#A5D5F9" transform="translate(13,20)"/>
<path d="M0 0 C2.1875 -0.375 2.1875 -0.375 5 0 C8.50165267 3.25735132 10.10892993 5.65201331 11.125 10.3125 C11.41375 11.529375 11.7025 12.74625 12 14 C12.99 14.33 13.98 14.66 15 15 C15 15.66 15 16.32 15 17 C9.72 17 4.44 17 -1 17 C3 15 3 15 7 15 C6.98674793 11.89901539 6.82346839 8.99866792 6 6 C3.07956297 3.52351923 3.07956297 3.52351923 0 2 C0 1.34 0 0.68 0 0 Z " fill="#4D7EA3" transform="translate(31,0)"/>
<path d="M0 0 C4.29 0 8.58 0 13 0 C13.33 0.66 13.66 1.32 14 2 C15.64821244 3.03013277 17.31503702 4.03114628 19 5 C20 6 20 6 20.0625 8.5625 C20.041875 9.366875 20.02125 10.17125 20 11 C19.67 10.34 19.34 9.68 19 9 C17.14255793 8.38932856 17.14255793 8.38932856 15 8 C12.8125 7.5625 12.8125 7.5625 11 7 C10.67 6.34 10.34 5.68 10 5 C8.7625 4.7525 8.7625 4.7525 7.5 4.5 C6.675 4.335 5.85 4.17 5 4 C4.67 3.34 4.34 2.68 4 2 C2.68 2 1.36 2 0 2 C0 1.34 0 0.68 0 0 Z " fill="#84C1EF" transform="translate(18,0)"/>
<path d="M0 0 C6.93 0.495 6.93 0.495 14 1 C14 1.33 14 1.66 14 2 C11.03 2 8.06 2 5 2 C5.495 2.5775 5.99 3.155 6.5 3.75 C8 6 8 6 8 10 C4.62182575 10.84454356 2.32534757 11.10844919 -1 10 C-0.835 8.906875 -0.67 7.81375 -0.5 6.6875 C0.06718184 3.12474127 0.06718184 3.12474127 0 0 Z " fill="#1F80CB" transform="translate(29,21)"/>
<path d="M0 0 C-0.33 0.99 -0.66 1.98 -1 3 C-2.7421875 3.81640625 -2.7421875 3.81640625 -4.875 4.5625 C-7.78154718 5.88034307 -8.79012858 6.5644825 -10.1953125 9.48046875 C-10.92108024 11.97837811 -11.53137186 14.44207142 -12 17 C-9.69 17 -7.38 17 -5 17 C-4.67 17.99 -4.34 18.98 -4 20 C-7.96 20.33 -11.92 20.66 -16 21 C-14.63461902 14.17309511 -13.04792662 8.04792662 -8 3 C-2.82758621 0 -2.82758621 0 0 0 Z " fill="#789CB8" transform="translate(18,0)"/>
<path d="M0 0 C3.96 0 7.92 0 12 0 C11 4 11 4 10 5 C8.31391034 5.07205511 6.62499341 5.08386068 4.9375 5.0625 C4.01839844 5.05347656 3.09929688 5.04445313 2.15234375 5.03515625 C1.44207031 5.02355469 0.73179688 5.01195312 0 5 C1.32 4.01 2.64 3.02 4 2 C2.68 1.34 1.36 0.68 0 0 Z " fill="#0C0F14" transform="translate(34,17)"/>
<path d="M0 0 C3.39576062 -0.05830787 6.7913915 -0.09369946 10.1875 -0.125 C11.14720703 -0.14175781 12.10691406 -0.15851562 13.09570312 -0.17578125 C14.02705078 -0.18222656 14.95839844 -0.18867188 15.91796875 -0.1953125 C16.77156982 -0.20578613 17.6251709 -0.21625977 18.50463867 -0.22705078 C21.30726815 0.02795806 23.44729419 0.84458578 26 2 C25.67 2.66 25.34 3.32 25 4 C22.625 4.75 22.625 4.75 20 5 C19.01 4.34 18.02 3.68 17 3 C17.66 2.67 18.32 2.34 19 2 C12.73 1.67 6.46 1.34 0 1 C0 0.67 0 0.34 0 0 Z " fill="#2D4254" transform="translate(13,17)"/>
<path d="M0 0 C0.99 0.66 1.98 1.32 3 2 C3 2.99 3 3.98 3 5 C-0.3125 5.25 -0.3125 5.25 -4 5 C-5.9375 3 -5.9375 3 -7 1 C-4.47454232 -0.26272884 -2.80127043 -0.20497101 0 0 Z " fill="#25323E" transform="translate(21,19)"/>
<path d="M0 0 C-1 3 -1 3 -2.70703125 3.9921875 C-3.74923828 4.42917969 -3.74923828 4.42917969 -4.8125 4.875 C-8.57648972 6.61846382 -10.66400188 8.49600282 -13 12 C-12.42070224 8.08974009 -10.6938245 5.83943664 -8 3 C-2.82758621 0 -2.82758621 0 0 0 Z " fill="#1D2D39" transform="translate(18,0)"/>
<path d="M0 0 C2.35694954 0.09031574 4.71153582 0.24688128 7.0625 0.4375 C8.35285156 0.53933594 9.64320312 0.64117188 10.97265625 0.74609375 C12.47119141 0.87177734 12.47119141 0.87177734 14 1 C14 1.33 14 1.66 14 2 C11.03 2 8.06 2 5 2 C5 2.66 5 3.32 5 4 C3.35 4.33 1.7 4.66 0 5 C-0.5625 3.0625 -0.5625 3.0625 -1 1 C-0.67 0.67 -0.34 0.34 0 0 Z " fill="#3A7BAE" transform="translate(29,21)"/>
<path d="M0 0 C0.99 0.495 0.99 0.495 2 1 C1.96744792 3.05078125 1.93489583 5.1015625 1.90234375 7.15234375 C1.79438816 9.01732141 1.79438816 9.01732141 3 10 C3.04063832 11.66617115 3.042721 13.33388095 3 15 C0.03090402 11.72698081 -0.34354794 9.61934238 -0.1875 5.25 C-0.16042969 4.26515625 -0.13335937 3.2803125 -0.10546875 2.265625 C-0.07066406 1.51796875 -0.03585938 0.7703125 0 0 Z " fill="#7AA7CA" transform="translate(1,21)"/>
<path d="M0 0 C2.3125 -0.3125 2.3125 -0.3125 5 0 C6.8125 2.5 6.8125 2.5 8 5 C5.07120629 4.37240135 2.63904371 3.41377341 0 2 C0 1.34 0 0.68 0 0 Z " fill="#243E53" transform="translate(31,0)"/>
<path d="M0 0 C1.485 0.99 1.485 0.99 3 2 C4.65549531 2.38499891 6.3222433 2.72793135 8 3 C8 3.33 8 3.66 8 4 C6.35 4 4.7 4 3 4 C3 4.66 3 5.32 3 6 C2.34 6 1.68 6 1 6 C0.67 4.02 0.34 2.04 0 0 Z " fill="#5DA3DA" transform="translate(4,34)"/>
<path d="M0 0 C1.65 0 3.3 0 5 0 C5.66 1.32 6.32 2.64 7 4 C4.625 3.6875 4.625 3.6875 2 3 C1.34 2.01 0.68 1.02 0 0 Z " fill="#7E7E7F" transform="translate(16,19)"/>
<path d="M0 0 C2.64 0 5.28 0 8 0 C7.01 1.485 7.01 1.485 6 3 C3.5625 2.625 3.5625 2.625 1 2 C0.67 1.34 0.34 0.68 0 0 Z " fill="#14202A" transform="translate(21,19)"/>
<path d="M0 0 C0.80824219 0.10183594 1.61648438 0.20367188 2.44921875 0.30859375 C3.06410156 0.39238281 3.67898438 0.47617187 4.3125 0.5625 C4.3125 0.8925 4.3125 1.2225 4.3125 1.5625 C-1.6275 2.0575 -1.6275 2.0575 -7.6875 2.5625 C-7.6875 1.9025 -7.6875 1.2425 -7.6875 0.5625 C-4.59271121 -0.46909626 -3.16118607 -0.41232862 0 0 Z " fill="#5A7D97" transform="translate(9.6875,18.4375)"/>
</svg>
