<?xml version="1.0" encoding="UTF-8"?>
<svg version="1.1" xmlns="http://www.w3.org/2000/svg" width="91" height="89">
<path d="M0 0 C1.7323752 0.03015646 3.46480133 0.05752218 5.19726562 0.08203125 C9.40362181 0.14753521 13.60748644 0.25073272 17.8125 0.375 C17.945354 1.16648438 18.07820801 1.95796875 18.21508789 2.7734375 C18.92642271 5.87110153 19.73424568 6.53394902 22.25 8.375 C27.55106303 12.27056198 28.15983332 17.47339388 29.4375 23.6875 C29.82808594 25.56888672 29.82808594 25.56888672 30.2265625 27.48828125 C30.41992188 28.44089844 30.61328125 29.39351562 30.8125 30.375 C33.1225 30.705 35.4325 31.035 37.8125 31.375 C37.86208948 35.84072364 37.898309 40.30629961 37.92236328 44.7722168 C37.93239545 46.29014886 37.94602438 47.80806173 37.96337891 49.32592773 C37.98775035 51.5129064 37.99901095 53.69962864 38.0078125 55.88671875 C38.01828613 57.20115967 38.02875977 58.51560059 38.03955078 59.86987305 C37.7734494 63.97784882 36.9845612 66.88328575 34.4375 70.125 C32.8125 71.375 32.8125 71.375 30.75 71.8125 C30.110625 71.998125 29.47125 72.18375 28.8125 72.375 C28.4825 73.035 28.1525 73.695 27.8125 74.375 C26.8125 76.375 26.8125 76.375 24.6875 77.125 C24.06875 77.2075 23.45 77.29 22.8125 77.375 C22.8125 79.355 22.8125 81.335 22.8125 83.375 C14.994898 87.61393298 8.78907195 89.11180482 -0.0625 88.8125 C-1.13661133 88.79292236 -2.21072266 88.77334473 -3.31738281 88.75317383 C-10.53699718 88.5761391 -17.74171984 88.17141303 -24.9375 87.5625 C-26.23083252 87.45796509 -26.23083252 87.45796509 -27.55029297 87.35131836 C-32.08530462 86.89326854 -35.63336943 86.44647086 -39.1875 83.375 C-40.98299778 80.8869109 -42.43497812 78.26836735 -43.875 75.5625 C-44.26494141 74.86318359 -44.65488281 74.16386719 -45.05664062 73.44335938 C-51.19676233 62.22320535 -52.5781262 50.81942395 -49.125 38.4375 C-48.815625 37.426875 -48.50625 36.41625 -48.1875 35.375 C-47.5275 35.375 -46.8675 35.375 -46.1875 35.375 C-45.754375 34.075625 -45.754375 34.075625 -45.3125 32.75 C-44.59582122 30.59996366 -43.8678435 28.45363714 -43.125 26.3125 C-42.13563332 23.48184452 -42.13563332 23.48184452 -41.8125 20.875 C-40.18151092 14.35104369 -35.35768044 10.23077752 -30.1875 6.375 C-29.48915039 5.8495459 -28.79080078 5.3240918 -28.07128906 4.78271484 C-19.08808914 -1.02622862 -10.28346091 -0.31314187 0 0 Z " fill="#519DD8" transform="translate(53.1875,-0.375)"/>
<path d="M0 0 C1.05055321 0.00848969 1.05055321 0.00848969 2.12232971 0.01715088 C4.3335857 0.0393328 6.54314998 0.08948694 8.75390625 0.140625 C10.26364828 0.16071385 11.773416 0.17896042 13.28320312 0.1953125 C16.96147624 0.23913553 20.63877581 0.30803159 24.31640625 0.390625 C24.44926025 1.18210938 24.58211426 1.97359375 24.71899414 2.7890625 C25.43032896 5.88672653 26.23815193 6.54957402 28.75390625 8.390625 C34.05496928 12.28618698 34.66373957 17.48901888 35.94140625 23.703125 C36.33199219 25.58451172 36.33199219 25.58451172 36.73046875 27.50390625 C36.92382812 28.45652344 37.1171875 29.40914062 37.31640625 30.390625 C39.62640625 30.720625 41.93640625 31.050625 44.31640625 31.390625 C44.31640625 32.050625 44.31640625 32.710625 44.31640625 33.390625 C37.1890122 34.11535356 30.1150358 34.57107853 22.953125 34.70703125 C21.99984818 34.72781235 21.04657135 34.74859344 20.06440735 34.77000427 C18.05689242 34.81293038 16.04933721 34.85400948 14.04174805 34.89331055 C11.04919878 34.9522332 8.05684529 35.01760741 5.06445312 35.08398438 C-8.18640907 35.36579578 -21.4300086 35.44184737 -34.68359375 35.390625 C-35.86979891 31.83200951 -35.52507859 29.71428701 -34.99609375 26.015625 C-34.84785156 24.89414062 -34.69960938 23.77265625 -34.546875 22.6171875 C-33.38901016 18.28960218 -31.4099365 15.48920675 -27.62109375 13.078125 C-25.68359375 12.390625 -25.68359375 12.390625 -22.68359375 12.390625 C-22.68359375 11.730625 -22.68359375 11.070625 -22.68359375 10.390625 C-21.03287979 9.36450551 -19.36389369 8.36754357 -17.68359375 7.390625 C-17.22984375 6.91625 -16.77609375 6.441875 -16.30859375 5.953125 C-11.3257106 1.1618912 -6.79817269 -0.10920759 0 0 Z " fill="#59B4F9" transform="translate(46.68359375,-0.390625)"/>
<path d="M0 0 C2.27024968 -0.08097324 4.54132075 -0.13917704 6.8125 -0.1875 C8.07707031 -0.22230469 9.34164063 -0.25710937 10.64453125 -0.29296875 C14 0 14 0 15.78515625 1.421875 C16.18605469 1.94265625 16.58695313 2.4634375 17 3 C17.86625 3.474375 18.7325 3.94875 19.625 4.4375 C22 6 22 6 23 10 C28.28 10 33.56 10 39 10 C39.495 11.98 39.495 11.98 40 14 C35.25 17 35.25 17 33 17 C33 17.66 33 18.32 33 19 C33.99 19.33 34.98 19.66 36 20 C35.195625 20.12375 34.39125 20.2475 33.5625 20.375 C32.716875 20.58125 31.87125 20.7875 31 21 C30.67 21.66 30.34 22.32 30 23 C29.01 23 28.02 23 27 23 C27 22.34 27 21.68 27 21 C25.05000871 21.19471111 25.05000871 21.19471111 23 22 C22.30752858 23.32011573 21.64606293 24.65656228 21 26 C18.12007391 30.35958736 15.40410836 34.42353805 10.1328125 35.6875 C3.02969122 35.83822936 3.02969122 35.83822936 0.27734375 33.59765625 C-2.96502573 29.54221553 -4.39784944 26.17849485 -5 21 C-5.99 21 -6.98 21 -8 21 C-8.13494246 18.3941111 -8.23402299 15.79517889 -8.3125 13.1875 C-8.35439453 12.44951172 -8.39628906 11.71152344 -8.43945312 10.95117188 C-8.48828125 8.79296875 -8.48828125 8.79296875 -8 5 C-5.15241819 2.54354333 -3.75822514 2 0 2 C0 1.34 0 0.68 0 0 Z " fill="#80C2F6" transform="translate(12,39)"/>
<path d="M0 0 C-3.38121547 3.88213628 -3.38121547 3.88213628 -6.625 4.5 C-7.40875 4.665 -8.1925 4.83 -9 5 C-9.69937532 6.31647119 -10.36729133 7.65022151 -11 9 C-13.125 9.75 -13.125 9.75 -15 10 C-15 10.66 -15 11.32 -15 12 C-16.72526042 12.65104167 -18.45052083 13.30208333 -20.17578125 13.953125 C-22.62196167 15.35692876 -23.60229666 16.5296406 -25 19 C-25.52524116 21.6402497 -25.91284421 24.09011505 -26.1875 26.75 C-26.59375 30.375 -26.59375 30.375 -27 34 C-9.7027404 34.08081783 7.58112857 33.82576319 24.875 33.5 C27.52083 33.45164025 30.16666333 33.40346209 32.8125 33.35546875 C39.20837348 33.23906577 45.60419735 33.12022907 52 33 C52 36.3 52 39.6 52 43 C47.1538683 45.42306585 43.74284406 45.33240002 38.4375 45.3125 C37.57447266 45.32861328 36.71144531 45.34472656 35.82226562 45.36132812 C34.57799805 45.36229492 34.57799805 45.36229492 33.30859375 45.36328125 C32.17635376 45.36775269 32.17635376 45.36775269 31.02124023 45.37231445 C28.48365125 44.90488805 27.71530726 43.8612522 26 42 C22.81777933 41.51042759 21.48728988 41.66585837 18.8125 43.5 C18.214375 43.995 17.61625 44.49 17 45 C16.34 45 15.68 45 15 45 C14.67 45.99 14.34 46.98 14 48 C11.06152347 48.107834 8.12698849 48.18721916 5.1875 48.25 C3.93743164 48.30027344 3.93743164 48.30027344 2.66210938 48.3515625 C0.37634715 48.38828157 -1.74485671 48.37900366 -4 48 C-5.91015625 46.08984375 -5.91015625 46.08984375 -7 44 C-8.63495707 42.94895617 -10.29883624 41.94011682 -12 41 C-12.495 40.505 -12.495 40.505 -13 40 C-15.34987262 39.76472227 -17.70556039 39.58613583 -20.0625 39.4375 C-21.35285156 39.35371094 -22.64320312 39.26992188 -23.97265625 39.18359375 C-25.47119141 39.09271484 -25.47119141 39.09271484 -27 39 C-27 39.66 -27 40.32 -27 41 C-29.31 41.99 -31.62 42.98 -34 44 C-34.33 48.95 -34.66 53.9 -35 59 C-35.33 59 -35.66 59 -36 59 C-37.12801365 50.37503407 -36.54307727 43.30738575 -34 35 C-33.34 35 -32.68 35 -32 35 C-31.566875 33.700625 -31.566875 33.700625 -31.125 32.375 C-30.40832122 30.22496366 -29.6803435 28.07863714 -28.9375 25.9375 C-27.94813332 23.10684452 -27.94813332 23.10684452 -27.625 20.5 C-25.74576933 12.98307733 -19.53598474 8.22203919 -13.27734375 4.2890625 C-5.11969518 -0.38813574 -5.11969518 -0.38813574 0 0 Z " fill="#0C1217" transform="translate(39,0)"/>
<path d="M0 0 C1.52657227 0.02707031 1.52657227 0.02707031 3.08398438 0.0546875 C5.57781655 0.10152003 8.06965047 0.16708573 10.5625 0.25 C10.5625 1.57 10.5625 2.89 10.5625 4.25 C11.9546875 4.6521875 11.9546875 4.6521875 13.375 5.0625 C16.46741241 6.21457521 17.54883413 6.77868279 19.5625 9.25 C20.5834375 10.36375 20.5834375 10.36375 21.625 11.5 C23.93470178 14.77828639 24.64983155 17.37115911 25.5625 21.25 C24.5725 21.58 23.5825 21.91 22.5625 22.25 C22.19125 21.4559375 21.82 20.661875 21.4375 19.84375 C19.02783812 16.51038441 17.54921952 16.41445325 13.5625 15.75 C7.99728261 14.82246377 7.99728261 14.82246377 5.6875 11.78125 C4.5625 9.25 4.5625 9.25 4.5625 7.25 C-0.55289901 7.27228932 -3.513187 7.325687 -7.25 11.0625 C-7.971875 12.114375 -8.69375 13.16625 -9.4375 14.25 C-10.77083333 15.58333333 -12.10416667 16.91666667 -13.4375 18.25 C-14.0975 19.24 -14.7575 20.23 -15.4375 21.25 C-16.0975 21.25 -16.7575 21.25 -17.4375 21.25 C-17.55867188 21.85328125 -17.67984375 22.4565625 -17.8046875 23.078125 C-17.97226562 23.87734375 -18.13984375 24.6765625 -18.3125 25.5 C-18.47492187 26.28890625 -18.63734375 27.0778125 -18.8046875 27.890625 C-19.44236814 30.26815034 -20.12072142 32.16893735 -21.4375 34.25 C-24.99795177 35.43681726 -27.87558337 35.34689832 -31.625 35.3125 C-32.89730469 35.30347656 -34.16960938 35.29445312 -35.48046875 35.28515625 C-36.94419922 35.26775391 -36.94419922 35.26775391 -38.4375 35.25 C-39.62370516 31.69138451 -39.27898484 29.57366201 -38.75 25.875 C-38.60175781 24.75351562 -38.45351563 23.63203125 -38.30078125 22.4765625 C-37.14291641 18.14897718 -35.16384275 15.34858175 -31.375 12.9375 C-29.4375 12.25 -29.4375 12.25 -26.4375 12.25 C-26.4375 11.59 -26.4375 10.93 -26.4375 10.25 C-24.78678604 9.22388051 -23.11779994 8.22691857 -21.4375 7.25 C-20.98375 6.775625 -20.53 6.30125 -20.0625 5.8125 C-13.88233688 -0.12996454 -8.19345068 -0.27720198 0 0 Z " fill="#8FCBFA" transform="translate(50.4375,-0.25)"/>
<path d="M0 0 C-3.38121547 3.88213628 -3.38121547 3.88213628 -6.625 4.5 C-7.40875 4.665 -8.1925 4.83 -9 5 C-9.69937532 6.31647119 -10.36729133 7.65022151 -11 9 C-13.125 9.75 -13.125 9.75 -15 10 C-15 10.66 -15 11.32 -15 12 C-16.72526042 12.65104167 -18.45052083 13.30208333 -20.17578125 13.953125 C-22.51244634 15.13434655 -22.51244634 15.13434655 -25 19 C-25.66 23.95 -26.32 28.9 -27 34 C-14.46 34 -1.92 34 11 34 C11 34.33 11 34.66 11 35 C8.03 35 5.06 35 2 35 C3.11750716 39.47002864 3.59819561 39.47608062 7 42 C7 42.99 7 43.98 7 45 C6.195625 44.979375 5.39125 44.95875 4.5625 44.9375 C2.06645115 44.70366379 2.06645115 44.70366379 1 46 C5.29 46.33 9.58 46.66 14 47 C14 47.33 14 47.66 14 48 C11.06152347 48.107834 8.12698849 48.18721916 5.1875 48.25 C3.93743164 48.30027344 3.93743164 48.30027344 2.66210938 48.3515625 C0.37634715 48.38828157 -1.74485671 48.37900366 -4 48 C-5.91015625 46.08984375 -5.91015625 46.08984375 -7 44 C-8.63495707 42.94895617 -10.29883624 41.94011682 -12 41 C-12.495 40.505 -12.495 40.505 -13 40 C-15.34987262 39.76472227 -17.70556039 39.58613583 -20.0625 39.4375 C-21.35285156 39.35371094 -22.64320312 39.26992188 -23.97265625 39.18359375 C-25.47119141 39.09271484 -25.47119141 39.09271484 -27 39 C-27 39.66 -27 40.32 -27 41 C-29.31 41.99 -31.62 42.98 -34 44 C-34.33 48.95 -34.66 53.9 -35 59 C-35.33 59 -35.66 59 -36 59 C-37.12801365 50.37503407 -36.54307727 43.30738575 -34 35 C-33.34 35 -32.68 35 -32 35 C-31.566875 33.700625 -31.566875 33.700625 -31.125 32.375 C-30.40832122 30.22496366 -29.6803435 28.07863714 -28.9375 25.9375 C-27.94813332 23.10684452 -27.94813332 23.10684452 -27.625 20.5 C-25.74576933 12.98307733 -19.53598474 8.22203919 -13.27734375 4.2890625 C-5.11969518 -0.38813574 -5.11969518 -0.38813574 0 0 Z " fill="#6089A9" transform="translate(39,0)"/>
<path d="M0 0 C4.62 0 9.24 0 14 0 C14.33 1.32 14.66 2.64 15 4 C14.01 4.495 14.01 4.495 13 5 C12.855625 6.11375 12.71125 7.2275 12.5625 8.375 C11.96642408 12.21637818 11.65473113 12.56649646 9 15 C8.33652369 17.48400985 8.33652369 17.48400985 8 20 C6.85981998 23.42054006 6.07541482 24.2426201 3 26 C0.75 25.6875 0.75 25.6875 -1 25 C-1.33 23.68 -1.66 22.36 -2 21 C-3.98 21 -5.96 21 -8 21 C-8.13494246 18.3941111 -8.23402299 15.79517889 -8.3125 13.1875 C-8.35439453 12.44951172 -8.39628906 11.71152344 -8.43945312 10.95117188 C-8.48828125 8.79296875 -8.48828125 8.79296875 -8 5 C-5.15241819 2.54354333 -3.75822514 2 0 2 C0 1.34 0 0.68 0 0 Z " fill="#A6D7FD" transform="translate(12,39)"/>
<path d="M0 0 C3.3 0 6.6 0 10 0 C10.020625 0.70125 10.04125 1.4025 10.0625 2.125 C11.27418445 5.8408323 13.22355149 7.10791258 16.30859375 9.375 C20.09899197 13.01658351 20.60395637 18.34651505 21.625 23.3125 C22.01558594 25.19388672 22.01558594 25.19388672 22.4140625 27.11328125 C22.60742188 28.06589844 22.80078125 29.01851562 23 30 C25.31 30.33 27.62 30.66 30 31 C30 31.66 30 32.32 30 33 C19.69339617 34.32378398 9.36776236 34.09139066 -1 34 C-1 33.34 -1 32.68 -1 32 C1.31 32 3.62 32 6 32 C6.66 30.68 7.32 29.36 8 28 C10.38564077 28.57584432 12.66682784 29.22227595 15 30 C14.649375 28.741875 14.29875 27.48375 13.9375 26.1875 C13.06390515 23.05283612 12.92760703 22.21717892 14 19 C12.70974849 15.96790896 11.28979922 13.38639896 9.3125 10.75 C8 9 8 9 8 7 C7.05125 6.690625 6.1025 6.38125 5.125 6.0625 C2 5 2 5 0 4 C0 2.68 0 1.36 0 0 Z " fill="#4484B6" transform="translate(61,0)"/>
<path d="M0 0 C0 0.33 0 0.66 0 1 C-2.97 1 -5.94 1 -9 1 C-7.88249284 5.47002864 -7.40180439 5.47608062 -4 8 C-4 8.99 -4 9.98 -4 11 C-4.804375 10.979375 -5.60875 10.95875 -6.4375 10.9375 C-8.93354885 10.70366379 -8.93354885 10.70366379 -10 12 C-5.71 12.33 -1.42 12.66 3 13 C3 13.33 3 13.66 3 14 C-13.09108051 15.22598709 -13.09108051 15.22598709 -17.71875 12.25390625 C-19.41078446 10.24282292 -20.75510859 8.30915152 -22 6 C-23.99616554 4.00383446 -27.81701963 4.59016573 -30.5625 4.4375 C-31.27341797 4.39431641 -31.98433594 4.35113281 -32.71679688 4.30664062 C-34.47761912 4.20028223 -36.2387832 4.09961154 -38 4 C-38 3.34 -38 2.68 -38 2 C-25.29304542 0.67870163 -12.7821215 -0.32962491 0 0 Z " fill="#0F1F2D" transform="translate(50,34)"/>
<path d="M0 0 C3.0625 0.375 3.0625 0.375 5.875 2.5625 C8.06972108 5.38428424 9.0625 6.81601846 9.0625 10.375 C7.35319613 13.25945028 5.6057757 13.52208071 2.375 14.5625 C1.281875 14.830625 0.18875 15.09875 -0.9375 15.375 C-1.2675 14.715 -1.5975 14.055 -1.9375 13.375 C-4.2515622 12.64424352 -6.58578869 11.97361742 -8.9375 11.375 C-10.27378319 6.02986726 -10.27378319 6.02986726 -8.75 3.0625 C-5.94041679 0.44668115 -3.72844155 0.47597126 0 0 Z " fill="#1D7FCA" transform="translate(64.9375,48.625)"/>
<path d="M0 0 C3.33388318 0.16951948 4.94441987 0.43192871 7.6875 2.1875 C7.6875 3.1775 7.6875 4.1675 7.6875 5.1875 C5.7075 5.8475 3.7275 6.5075 1.6875 7.1875 C8.6175 7.6825 8.6175 7.6825 15.6875 8.1875 C16.3475 6.8675 17.0075 5.5475 17.6875 4.1875 C18.0175 3.5275 18.3475 2.8675 18.6875 2.1875 C19.3475 2.1875 20.0075 2.1875 20.6875 2.1875 C20.6875 3.8375 20.6875 5.4875 20.6875 7.1875 C16.18465196 9.7526235 12.1942948 9.51901461 7.125 9.5 C5.83045898 9.52416992 5.83045898 9.52416992 4.50976562 9.54882812 C3.68025391 9.54947266 2.85074219 9.55011719 1.99609375 9.55078125 C0.86385376 9.55525269 0.86385376 9.55525269 -0.29125977 9.55981445 C-2.83854662 9.09060169 -3.62829831 8.09842693 -5.3125 6.1875 C-7.41239652 5.01175289 -7.41239652 5.01175289 -9.3125 4.1875 C-8.6525 3.8575 -7.9925 3.5275 -7.3125 3.1875 C-8.3025 2.5275 -9.2925 1.8675 -10.3125 1.1875 C-8.8584375 1.2184375 -8.8584375 1.2184375 -7.375 1.25 C-3.78784699 1.1767928 -3.66636393 0.20753003 0 0 Z " fill="#171C21" transform="translate(70.3125,35.8125)"/>
<path d="M0 0 C-3.38121547 3.88213628 -3.38121547 3.88213628 -6.625 4.5 C-7.40875 4.665 -8.1925 4.83 -9 5 C-9.69937532 6.31647119 -10.36729133 7.65022151 -11 9 C-13.125 9.75 -13.125 9.75 -15 10 C-15 10.66 -15 11.32 -15 12 C-16.6396875 12.61875 -16.6396875 12.61875 -18.3125 13.25 C-21.52314188 14.63154893 -23.28365376 15.85336524 -25 19 C-25.70514846 21.14733927 -25.70514846 21.14733927 -26 23 C-26.66 23 -27.32 23 -28 23 C-27.20321184 16.22730064 -23.2385858 11.69505493 -18.12890625 7.5234375 C-6.88587571 -0.5220339 -6.88587571 -0.5220339 0 0 Z " fill="#6D92AE" transform="translate(39,0)"/>
<path d="M0 0 C-0.6290625 0.62390625 -1.258125 1.2478125 -1.90625 1.890625 C-3.14459686 3.13821325 -4.35601698 4.41535314 -5.5 5.75 C-7 7 -7 7 -11 7 C-11 5.68 -11 4.36 -11 3 C-18.92 3.495 -18.92 3.495 -27 4 C-27 3.01 -27 2.02 -27 1 C-18.02243049 -0.3300103 -9.05168034 -0.08788039 0 0 Z " fill="#091119" transform="translate(68,34)"/>
<path d="M0 0 C7.76785714 -0.66964286 7.76785714 -0.66964286 11.5 2.3125 C14 5 14 5 14 8 C6.03424015 8.78095685 6.03424015 8.78095685 1.9375 5.6875 C0 3 0 3 0 0 Z " fill="#7C7C7F" transform="translate(32,37)"/>
<path d="M0 0 C0.66 0.33 1.32 0.66 2 1 C1.505 1.495 1.01 1.99 0.5 2.5 C-1.57385393 5.95642322 -1.45448803 9.11077456 -1 13 C-0.10202887 16.36821272 -0.10202887 16.36821272 1 19 C-0.98 19 -2.96 19 -5 19 C-5.13494246 16.3941111 -5.23402299 13.79517889 -5.3125 11.1875 C-5.35439453 10.44951172 -5.39628906 9.71152344 -5.43945312 8.95117188 C-5.48828125 6.79296875 -5.48828125 6.79296875 -5 3 C-2.60546875 0.92578125 -2.60546875 0.92578125 0 0 Z " fill="#A5CBE9" transform="translate(9,41)"/>
<path d="M0 0 C-2 2 -2 2 -4.5 3.4375 C-7.23702985 4.90965916 -7.23702985 4.90965916 -9 8 C-8.69159401 10.15274948 -8.69159401 10.15274948 -8 12 C-8.99 12.495 -8.99 12.495 -10 13 C-10.99 12.67 -11.98 12.34 -13 12 C-13.33 10.68 -13.66 9.36 -14 8 C-19.28 8 -24.56 8 -30 8 C-30 7.67 -30 7.34 -30 7 C-28.74703125 6.97421875 -27.4940625 6.9484375 -26.203125 6.921875 C-24.55204877 6.86558831 -22.90100845 6.8082411 -21.25 6.75 C-20.0125 6.72873047 -20.0125 6.72873047 -18.75 6.70703125 C-13.78580155 6.55791337 -13.78580155 6.55791337 -9.609375 4.078125 C-9.07828125 3.39234375 -8.5471875 2.7065625 -8 2 C-4.77208445 -0.1519437 -3.71599191 -0.20086443 0 0 Z " fill="#569CD3" transform="translate(65,41)"/>
<path d="M0 0 C3.3 0 6.6 0 10 0 C10.103125 0.7425 10.20625 1.485 10.3125 2.25 C11.04253504 5.17014018 12.06789398 6.73187554 14 9 C8.93001981 8.34580901 4.58009223 6.1453591 0 4 C0 2.68 0 1.36 0 0 Z " fill="#1C2B38" transform="translate(61,0)"/>
<path d="M0 0 C3.13696326 -0.34855147 4.52921839 -0.36735232 7.0625 1.609375 C9.43336369 4.53471487 9.99181168 6.82699879 10.75 10.5 C11.11351563 12.18609375 11.11351563 12.18609375 11.484375 13.90625 C12 17 12 17 12 21 C11.34 21 10.68 21 10 21 C9.52014033 19.72942818 9.0411407 18.45853152 8.5625 17.1875 C8.16224609 16.12595703 8.16224609 16.12595703 7.75390625 15.04296875 C6.31356398 11.13986507 5.90756086 8.15976143 6 4 C5.34 4 4.68 4 4 4 C4 3.34 4 2.68 4 2 C2.68 1.34 1.36 0.68 0 0 Z " fill="#526A7C" transform="translate(71,9)"/>
<path d="M0 0 C0.66 0.33 1.32 0.66 2 1 C1.31292969 1.60328125 0.62585937 2.2065625 -0.08203125 2.828125 C-0.98308594 3.62734375 -1.88414063 4.4265625 -2.8125 5.25 C-3.70582031 6.03890625 -4.59914063 6.8278125 -5.51953125 7.640625 C-8.8806125 10.83762197 -11.1743334 13.37626705 -12 18 C-12.66 18 -13.32 18 -14 18 C-13.16016317 10.86138693 -8.87189202 6.59648659 -3.5859375 2.19921875 C-2 1 -2 1 0 0 Z " fill="#17232C" transform="translate(25,5)"/>
<path d="M0 0 C0.98613281 0.00322266 1.97226562 0.00644531 2.98828125 0.00976562 C4.02082031 0.01814453 5.05335937 0.02652344 6.1171875 0.03515625 C7.67759766 0.04192383 7.67759766 0.04192383 9.26953125 0.04882812 C11.84380712 0.06063673 14.41796896 0.0771055 16.9921875 0.09765625 C16.6621875 1.41765625 16.3321875 2.73765625 15.9921875 4.09765625 C15.9921875 3.10765625 15.9921875 2.11765625 15.9921875 1.09765625 C11.0421875 1.09765625 6.0921875 1.09765625 0.9921875 1.09765625 C0.9921875 1.75765625 0.9921875 2.41765625 0.9921875 3.09765625 C-0.833125 3.31421875 -0.833125 3.31421875 -2.6953125 3.53515625 C-5.83451627 3.92546578 -8.9153259 4.42117481 -12.0078125 5.09765625 C-7.6606536 1.55128978 -5.60752586 -0.03222716 0 0 Z " fill="#71A4CD" transform="translate(44.0078125,-0.09765625)"/>
<path d="M0 0 C0 0.33 0 0.66 0 1 C-2.97 1 -5.94 1 -9 1 C-9.33 1.99 -9.66 2.98 -10 4 C-15.00890086 3.38487182 -20.00632136 2.7282448 -25 2 C-25 1.67 -25 1.34 -25 1 C-16.65667456 -0.19190363 -8.40676978 -0.09283549 0 0 Z " fill="#163046" transform="translate(50,34)"/>
<path d="M0 0 C1.890625 0.26953125 1.890625 0.26953125 4 1 C6.70678361 5.23187437 7.37057967 10.0589377 7 15 C4.25484323 12.61666905 3.10919982 10.31090681 1.8125 6.9375 C1.46832031 6.05964844 1.12414062 5.18179688 0.76953125 4.27734375 C0 2 0 2 0 0 Z " fill="#619FCF" transform="translate(3,59)"/>
<path d="M0 0 C3.1875 -0.3125 3.1875 -0.3125 6 0 C5.67 0.66 5.34 1.32 5 2 C4.360625 2.12375 3.72125 2.2475 3.0625 2.375 C2.381875 2.58125 1.70125 2.7875 1 3 C0.67 3.66 0.34 4.32 0 5 C-1 7 -1 7 -3.125 7.75 C-4.053125 7.87375 -4.053125 7.87375 -5 8 C-5 9.65 -5 11.3 -5 13 C-5.66 12.67 -6.32 12.34 -7 12 C-7 10.35 -7 8.7 -7 7 C-6.401875 6.773125 -5.80375 6.54625 -5.1875 6.3125 C-2.77377956 5.12252979 -2.77377956 5.12252979 -1.625 2.375 C-1.08875 1.59125 -0.5525 0.8075 0 0 Z " fill="#6994B5" transform="translate(81,69)"/>
<path d="M0 0 C0.66 0 1.32 0 2 0 C2 1.65 2 3.3 2 5 C-0.99126319 6.72206188 -3.10685713 7.24179923 -6.546875 7.1953125 C-7.81337891 7.18564453 -7.81337891 7.18564453 -9.10546875 7.17578125 C-9.97816406 7.15902344 -10.85085937 7.14226563 -11.75 7.125 C-13.08224609 7.11146484 -13.08224609 7.11146484 -14.44140625 7.09765625 C-16.62788058 7.07414577 -18.81380094 7.04128499 -21 7 C-21 6.67 -21 6.34 -21 6 C-15.06 6 -9.12 6 -3 6 C-2.34 4.68 -1.68 3.36 -1 2 C-0.67 1.34 -0.34 0.68 0 0 Z " fill="#34658C" transform="translate(89,38)"/>
<path d="M0 0 C0.99 0.495 0.99 0.495 2 1 C2 1.66 2 2.32 2 3 C3.32 3.33 4.64 3.66 6 4 C6 4.66 6 5.32 6 6 C6.66 6 7.32 6 8 6 C8.625 8.875 8.625 8.875 9 12 C8.34 12.66 7.68 13.32 7 14 C6.74605469 13.46890625 6.49210937 12.9378125 6.23046875 12.390625 C4.40249254 8.63882365 2.55135689 5.31676395 0 2 C0 1.34 0 0.68 0 0 Z " fill="#74A3C8" transform="translate(69,7)"/>
<path d="M0 0 C0.33 0.99 0.66 1.98 1 3 C2.65 3 4.3 3 6 3 C6 3.66 6 4.32 6 5 C0.39 5 -5.22 5 -11 5 C-4.31914894 1.65957447 -4.31914894 1.65957447 0 3 C0 2.01 0 1.02 0 0 Z " fill="#13171A" transform="translate(47,42)"/>
<path d="M0 0 C6.625 -0.125 6.625 -0.125 10 1 C10 1.99 10 2.98 10 4 C7.03 4 4.06 4 1 4 C0.67 2.68 0.34 1.36 0 0 Z " fill="#6C6B6B" transform="translate(68,37)"/>
<path d="M0 0 C-1.75 4.875 -1.75 4.875 -4 6 C-5.99960012 6.039992 -8.00047242 6.04346799 -10 6 C-10 5.34 -10 4.68 -10 4 C-3.375 0 -3.375 0 0 0 Z " fill="#B2DCFB" transform="translate(35,6)"/>
<path d="M0 0 C3 1.8125 3 1.8125 6 4 C6 4.99 6 5.98 6 7 C4.02 7 2.04 7 0 7 C0 6.01 0 5.02 0 4 C-0.66 4 -1.32 4 -2 4 C-2 3.34 -2 2.68 -2 2 C-1.34 2 -0.68 2 0 2 C0 1.34 0 0.68 0 0 Z " fill="#7C7C7D" transform="translate(40,38)"/>
<path d="M0 0 C1.2065625 0.0309375 1.2065625 0.0309375 2.4375 0.0625 C1.79296875 0.39894531 1.1484375 0.73539063 0.484375 1.08203125 C-2.46340895 3.93418099 -2.23273693 6.86698867 -2.3125 10.75 C-2.34214844 11.45189453 -2.37179687 12.15378906 -2.40234375 12.87695312 C-2.47287033 14.60485424 -2.51997068 16.3336832 -2.5625 18.0625 C-2.8925 18.0625 -3.2225 18.0625 -3.5625 18.0625 C-4.33284555 12.17231941 -4.80487456 6.90166045 -3.5625 1.0625 C-2.5625 0.0625 -2.5625 0.0625 0 0 Z " fill="#7C92A3" transform="translate(6.5625,40.9375)"/>
<path d="M0 0 C2.03529587 2.03529587 2.6384272 3.23417382 3.625 5.875 C3.88539062 6.55304687 4.14578125 7.23109375 4.4140625 7.9296875 C5 10 5 10 5 14 C4.34 14 3.68 14 3 14 C2.52014033 12.72942818 2.0411407 11.45853152 1.5625 10.1875 C1.16224609 9.12595703 1.16224609 9.12595703 0.75390625 8.04296875 C-1.0508167 3.15245009 -1.0508167 3.15245009 0 0 Z " fill="#5782A4" transform="translate(78,16)"/>
<path d="M0 0 C2.97 0.495 2.97 0.495 6 1 C6.144375 1.61875 6.28875 2.2375 6.4375 2.875 C6.93152225 5.03258322 6.93152225 5.03258322 8 7 C2.25 5.125 2.25 5.125 0 4 C0 2.68 0 1.36 0 0 Z " fill="#2F5878" transform="translate(61,0)"/>
<path d="M0 0 C-2.17089138 2.17089138 -4.36703714 3.4327602 -7 5 C-8.34631825 5.98244845 -9.68441297 6.97676564 -11 8 C-11.33 7.34 -11.66 6.68 -12 6 C-8.10961402 1.97546278 -5.76748744 -0.31175608 0 0 Z " fill="#3B81B7" transform="translate(65,41)"/>
<path d="M0 0 C1.03159626 3.09478879 0.97482862 4.52631393 0.5625 7.6875 C0.46066406 8.49574219 0.35882813 9.30398437 0.25390625 10.13671875 C0.17011719 10.75160156 0.08632812 11.36648437 0 12 C-0.99 12 -1.98 12 -3 12 C-3.34833144 7.12335991 -2.41685712 4.22949995 0 0 Z " fill="#7D9CB4" transform="translate(12,23)"/>
<path d="M0 0 C-1.78174788 2.30142435 -3.16304165 3.80034391 -6.046875 4.48828125 C-8.0246611 4.72323102 -10.01271872 4.86751458 -12 5 C-5.04931193 -0.27293578 -5.04931193 -0.27293578 0 0 Z " fill="#152C3F" transform="translate(39,0)"/>
<path d="M0 0 C0 0.33 0 0.66 0 1 C-1.5778125 1.0928125 -1.5778125 1.0928125 -3.1875 1.1875 C-7.6291735 2.13408616 -9.11593757 3.59156258 -12 7 C-12.66 6.67 -13.32 6.34 -14 6 C-10.0043325 -0.18684 -7.20903549 -0.84812182 0 0 Z " fill="#6DBDFB" transform="translate(55,7)"/>
<path d="M0 0 C0.66 0 1.32 0 2 0 C2 0.99 2 1.98 2 3 C1.34 3 0.68 3 0 3 C0 3.66 0 4.32 0 5 C0.66 5 1.32 5 2 5 C2 5.99 2 6.98 2 8 C1.01 8 0.02 8 -1 8 C-1.04241723 5.66705225 -1.04092937 3.33297433 -1 1 C-0.67 0.67 -0.34 0.34 0 0 Z " fill="#959596" transform="translate(38,37)"/>
<path d="M0 0 C0.99 0.66 1.98 1.32 3 2 C2.21625 2.598125 1.4325 3.19625 0.625 3.8125 C-2.14574323 5.91085249 -2.14574323 5.91085249 -4 9 C-3.46930939 5.17902761 -2.50298434 2.93828597 0 0 Z " fill="#7DA2BF" transform="translate(17,14)"/>
<path d="M0 0 C0.33 0.99 0.66 1.98 1 3 C2.65 3 4.3 3 6 3 C6 3.66 6 4.32 6 5 C3.69 5 1.38 5 -1 5 C-0.67 3.35 -0.34 1.7 0 0 Z " fill="#05090D" transform="translate(47,42)"/>
<path d="M0 0 C2.97 0.495 2.97 0.495 6 1 C6 1.99 6 2.98 6 4 C4.35 4 2.7 4 1 4 C0.67 2.68 0.34 1.36 0 0 Z " fill="#3B4E5F" transform="translate(4,37)"/>
<path d="M0 0 C0.66 0 1.32 0 2 0 C1.35455571 3.48539917 -0.10134397 6.02819057 -2 9 C-2.33 8.34 -2.66 7.68 -3 7 C-2.06421005 4.64018187 -1.06652192 2.30368736 0 0 Z " fill="#8DBBDF" transform="translate(15,19)"/>
</svg>
