<svg xmlns="http://www.w3.org/2000/svg" xmlns:xlink="http://www.w3.org/1999/xlink" width="45" zoomAndPan="magnify" viewBox="0 0 33.75 33.749998" height="45" preserveAspectRatio="xMidYMid meet" version="1.2"><defs/><g id="fa2ec6e24f"><g style="fill:#ffffff;fill-opacity:1;"><g transform="translate(3.804837, 24.748637)"><path style="stroke:none" d="M 4.890625 0.15625 C 3.453125 0.15625 2.34375 -0.25 1.5625 -1.0625 C 0.78125 -1.875 0.390625 -3.03125 0.390625 -4.53125 L 0.390625 -12.203125 C 0.390625 -13.816406 0.765625 -15.046875 1.515625 -15.890625 C 2.273438 -16.734375 3.398438 -17.15625 4.890625 -17.15625 C 6.390625 -17.15625 7.515625 -16.734375 8.265625 -15.890625 C 9.015625 -15.046875 9.390625 -13.816406 9.390625 -12.203125 L 9.390625 -4.53125 C 9.390625 -3.007812 9 -1.847656 8.21875 -1.046875 C 7.445312 -0.242188 6.335938 0.15625 4.890625 0.15625 Z M 4.890625 -2.96875 C 5.140625 -2.96875 5.34375 -3.082031 5.5 -3.3125 C 5.65625 -3.539062 5.734375 -3.816406 5.734375 -4.140625 L 5.734375 -12.515625 C 5.734375 -13.003906 5.675781 -13.378906 5.5625 -13.640625 C 5.457031 -13.898438 5.234375 -14.03125 4.890625 -14.03125 C 4.546875 -14.03125 4.320312 -13.898438 4.21875 -13.640625 C 4.113281 -13.378906 4.0625 -13.003906 4.0625 -12.515625 L 4.0625 -4.140625 C 4.0625 -3.816406 4.132812 -3.539062 4.28125 -3.3125 C 4.4375 -3.082031 4.640625 -2.96875 4.890625 -2.96875 Z M 4.890625 -2.96875 "/></g></g><g style="fill:#ffffff;fill-opacity:1;"><g transform="translate(13.57561, 24.748637)"><path style="stroke:none" d="M 0.515625 -1.9375 L 0.515625 -5.375 L 3.8125 -7.234375 L 0.515625 -9.078125 L 0.515625 -12.5625 L 6.015625 -9.25 L 6.015625 -5.265625 Z M 0.515625 -1.9375 "/></g></g><g style="fill:#ffffff;fill-opacity:1;"><g transform="translate(19.924631, 24.748637)"><path style="stroke:none" d="M 4.890625 0.15625 C 3.453125 0.15625 2.34375 -0.25 1.5625 -1.0625 C 0.78125 -1.875 0.390625 -3.03125 0.390625 -4.53125 L 0.390625 -12.203125 C 0.390625 -13.816406 0.765625 -15.046875 1.515625 -15.890625 C 2.273438 -16.734375 3.398438 -17.15625 4.890625 -17.15625 C 6.390625 -17.15625 7.515625 -16.734375 8.265625 -15.890625 C 9.015625 -15.046875 9.390625 -13.816406 9.390625 -12.203125 L 9.390625 -4.53125 C 9.390625 -3.007812 9 -1.847656 8.21875 -1.046875 C 7.445312 -0.242188 6.335938 0.15625 4.890625 0.15625 Z M 4.890625 -2.96875 C 5.140625 -2.96875 5.34375 -3.082031 5.5 -3.3125 C 5.65625 -3.539062 5.734375 -3.816406 5.734375 -4.140625 L 5.734375 -12.515625 C 5.734375 -13.003906 5.675781 -13.378906 5.5625 -13.640625 C 5.457031 -13.898438 5.234375 -14.03125 4.890625 -14.03125 C 4.546875 -14.03125 4.320312 -13.898438 4.21875 -13.640625 C 4.113281 -13.378906 4.0625 -13.003906 4.0625 -12.515625 L 4.0625 -4.140625 C 4.0625 -3.816406 4.132812 -3.539062 4.28125 -3.3125 C 4.4375 -3.082031 4.640625 -2.96875 4.890625 -2.96875 Z M 4.890625 -2.96875 "/></g></g></g></svg>